<svg width="1200" height="100" viewBox="0 0 1210 104" xmlns="http://www.w3.org/2000/svg" xmlns:sketch="http://www.bohemiancoding.com/sketch/ns"><title>wood</title><path d="M756.319 40.408l15.501 39.736 12.417-30.43 3.931 9.633 10.804-31.347 24.504 71.097 13.108-37.75 10.629 30.612 9.534-24.408 2.486 6.365 7.595-21.875 18.041 51.959h-153.359l24.808-63.592zm-115.866-23.107l-19.608 56.328-16.31-42.704-8.083 21.164-12.972-37.265-31.042 89.176h118.196l-30.18-86.699zm-445.793 31.511l-12.481 35.855-10.382-27.183-5.145 13.472-8.257-23.721-19.76 56.765h75.237l-19.211-55.188zm-91.223-45.923l-22.867 65.691-19.022-49.802-9.427 24.682-15.128-43.46-36.203 104h137.844l-35.197-101.111zm1091.624 58.333l-9.675 27.792-8.048-21.07-3.988 10.442-6.4-18.387-15.316 44h58.319l-14.891-42.778zm-906.56-24.222l16.007 41.461 14.993-31.461 4.371 9.172 11.629-33.172 25.378 72.391 18.122-46.391 14.563 37.28 11.438-29.28 3.206 8.207 9.794-28.207 23.264 67h-178.631l25.867-67zm676.701-14.766l19.535 50.598 18.297-38.394 5.334 11.193 14.192-40.482 30.972 88.346 22.115-56.615 17.772 45.496 13.958-35.733 3.912 10.016 11.953-34.424 28.391 81.766h-218l31.568-81.766z" fill="#4db6ac" sketch:type="MSShapeGroup"/></svg>